# xmcd
#
# Track frame offsets:
#	150
#	14377
#	31499
#	47938
#	68090
#	86518
#	105956
#	125620
#	145183
#	170584
#
# Disc length: 2428 seconds
#
# Revision: 0
# Processed by: cddbd v1.5.1PL0 Copyright (c) Steve Scherf et al.
# Submitted via: dBpowerAMP V4.0
#
DISCID=82097a0a
DTITLE=The Mighty Revelators - Explosion
DYEAR=1900
DGENRE=Gospel
TTITLE0=What Ya Gonna Do
TTITLE1=Been Good to Me
TTITLE2=Save You
TTITLE3=Merry Go Round
TTITLE4=I'll Follow Thee
TTITLE5=I Want Be Back
TTITLE6=Somebody Talking
TTITLE7=Can't Stop Lovin' God
TTITLE8=I Dream
TTITLE9=Nobody's Fault
EXTD=
EXTT0=
EXTT1=
EXTT2=
EXTT3=
EXTT4=
EXTT5=
EXTT6=
EXTT7=
EXTT8=
EXTT9=
PLAYORDER=
